<svg width="51" height="50" viewBox="0 0 51 50" fill="none" xmlns="http://www.w3.org/2000/svg">
    <path d="M22.4294 1.11422C24.4132 0.394218 26.5868 0.394217 28.5706 1.11422L33.6982 2.97532L38.8225 4.84562C40.805 5.56919 42.4701 6.9664 43.5269 8.79308L46.2586 13.5147L48.9819 18.2413C50.0354 20.0699 50.4129 22.2105 50.0483 24.2892L49.1059 29.6621L48.1538 35.0333C47.7855 37.1113 46.6986 38.9937 45.0832 40.3517L40.9076 43.8618L36.7257 47.3644C35.1079 48.7195 33.0653 49.4629 30.9549 49.4648L25.5 49.4697L20.0451 49.4648C17.9347 49.4629 15.8921 48.7195 14.2743 47.3644L10.0924 43.8618L5.91682 40.3517C4.3014 38.9937 3.21456 37.1113 2.84623 35.0333L1.89417 29.6621L0.951753 24.2892C0.58716 22.2105 0.964615 20.0699 2.01815 18.2413L4.74138 13.5147L7.47309 8.79308C8.52992 6.9664 10.1951 5.56919 12.1775 4.84562L17.3018 2.97532L22.4294 1.11422Z" fill="#A0D0FF"/>
</svg>