<svg width="48" height="48" viewBox="0 0 48 48" fill="none" xmlns="http://www.w3.org/2000/svg">
    <path d="M10.2985 3.83085C12.1267 1.81351 14.6983 0.628777 17.4197 0.550195L22.9149 0.391516L28.4058 0.121461C31.125 -0.0122761 33.7812 0.968443 35.7611 2.83717L39.759 6.61068L43.8326 10.3024C45.8499 12.1306 47.0347 14.7022 47.1132 17.4236L47.2719 22.9188L47.542 28.4097C47.6757 31.1289 46.695 33.7851 44.8263 35.765L41.0528 39.7629L37.3611 43.8365C35.5329 45.8538 32.9612 47.0386 30.2398 47.1171L24.7446 47.2758L19.2537 47.5459C16.5345 47.6796 13.8783 46.6989 11.8985 44.8302L7.90054 41.0567L3.82694 37.365C1.80961 35.5368 0.624871 32.9651 0.546289 30.2437L0.387609 24.7485L0.117555 19.2576C-0.0161823 16.5384 0.964537 13.8822 2.83326 11.9024L6.60677 7.90445L10.2985 3.83085Z" fill="#FFE180"/>
</svg>