<svg width="53" height="53" viewBox="0 0 53 53" fill="none" xmlns="http://www.w3.org/2000/svg">
<path d="M23.3514 1.70343C24.8426 -0.289162 27.8302 -0.289166 29.3215 1.70342L32.6081 6.09486C33.4218 7.18218 34.7624 7.74103 36.1076 7.55365L41.503 6.80204C43.9488 6.46134 46.0441 8.54932 45.7121 10.9963L44.9527 16.592C44.7729 17.9165 45.3159 19.2358 46.3759 20.0501L50.8241 23.4674C52.7669 24.9599 52.7669 27.8884 50.8241 29.3808L46.3759 32.7981C45.3159 33.6124 44.7729 34.9318 44.9527 36.2562L45.7121 41.852C46.0441 44.2989 43.9488 46.3869 41.503 46.0462L36.1076 45.2946C34.7624 45.1072 33.4218 45.6661 32.6081 46.7534L29.3215 51.1448C27.8302 53.1374 24.8426 53.1374 23.3514 51.1448L20.0648 46.7534C19.251 45.6661 17.9104 45.1072 16.5653 45.2946L11.1698 46.0462C8.72409 46.3869 6.62874 44.2989 6.96081 41.852L7.7202 36.2562C7.89994 34.9318 7.35696 33.6124 6.29702 32.7981L1.84874 29.3808C-0.093991 27.8884 -0.0939875 24.9599 1.84874 23.4674L6.29702 20.0501C7.35696 19.2358 7.89994 17.9165 7.7202 16.592L6.96081 10.9963C6.62874 8.54932 8.72409 6.46134 11.1698 6.80204L16.5653 7.55365C17.9104 7.74103 19.251 7.18218 20.0648 6.09486L23.3514 1.70343Z" fill="#86F0DC"/>
</svg>